<?xml version="1.0" encoding="UTF-8" standalone="no"?>
<!-- Created with Inkscape (http://www.inkscape.org/) -->

<svg
   width="209.84006mm"
   height="129.09552mm"
   viewBox="0 0 209.84006 129.09552"
   version="1.1"
   id="svg5"
   inkscape:version="1.1.2 (b8e25be833, 2022-02-05)"
   sodipodi:docname="logo_NK.svg"
   xmlns:inkscape="http://www.inkscape.org/namespaces/inkscape"
   xmlns:sodipodi="http://sodipodi.sourceforge.net/DTD/sodipodi-0.dtd"
   xmlns:xlink="http://www.w3.org/1999/xlink"
   xmlns="http://www.w3.org/2000/svg"
   xmlns:svg="http://www.w3.org/2000/svg">
  <sodipodi:namedview
     id="namedview7"
     pagecolor="#ffffff"
     bordercolor="#666666"
     borderopacity="1.0"
     inkscape:pageshadow="2"
     inkscape:pageopacity="0.0"
     inkscape:pagecheckerboard="0"
     inkscape:document-units="mm"
     showgrid="false"
     showguides="true"
     inkscape:guide-bbox="true"
     inkscape:lockguides="true"
     inkscape:zoom="1.4218013"
     inkscape:cx="557.74318"
     inkscape:cy="174.07495"
     inkscape:window-width="3200"
     inkscape:window-height="1711"
     inkscape:window-x="-562"
     inkscape:window-y="-1809"
     inkscape:window-maximized="1"
     inkscape:current-layer="layer1">
    <sodipodi:guide
       position="-566.45863,203.95489"
       orientation="1,0"
       id="guide59179"
       inkscape:locked="true" />
  </sodipodi:namedview>
  <defs
     id="defs2">
    <linearGradient
       inkscape:collect="always"
       id="linearGradient55277">
      <stop
         style="stop-color:#004cee;stop-opacity:1;"
         offset="0"
         id="stop55273" />
      <stop
         style="stop-color:#004cee;stop-opacity:0;"
         offset="1"
         id="stop55275" />
    </linearGradient>
    <linearGradient
       inkscape:collect="always"
       id="linearGradient55263">
      <stop
         style="stop-color:#0035b6;stop-opacity:1;"
         offset="0"
         id="stop55259" />
      <stop
         style="stop-color:#0035b6;stop-opacity:0;"
         offset="1"
         id="stop55261" />
    </linearGradient>
    <linearGradient
       id="linearGradient39164"
       inkscape:swatch="solid">
      <stop
         style="stop-color:#000000;stop-opacity:1;"
         offset="0"
         id="stop39162" />
    </linearGradient>
    <linearGradient
       id="linearGradient39050"
       inkscape:swatch="solid">
      <stop
         style="stop-color:#0000ff;stop-opacity:1;"
         offset="0"
         id="stop39048" />
    </linearGradient>
    <rect
       x="341.81989"
       y="583.76648"
       width="101.27997"
       height="75.959976"
       id="rect3471" />
    <rect
       x="84.399979"
       y="396.6799"
       width="251.79326"
       height="185.67995"
       id="rect1023" />
    <rect
       x="84.399979"
       y="396.6799"
       width="251.79326"
       height="185.67995"
       id="rect1023-4" />
    <rect
       x="84.399979"
       y="396.6799"
       width="251.79326"
       height="185.67995"
       id="rect1023-1" />
    <linearGradient
       inkscape:collect="always"
       xlink:href="#linearGradient55263"
       id="linearGradient55265"
       x1="45.297287"
       y1="79.238029"
       x2="32.530987"
       y2="121.1323"
       gradientUnits="userSpaceOnUse" />
    <linearGradient
       inkscape:collect="always"
       xlink:href="#linearGradient55263"
       id="linearGradient55267"
       x1="220.48799"
       y1="316.3338"
       x2="122.17684"
       y2="448.1239"
       gradientUnits="userSpaceOnUse" />
    <linearGradient
       inkscape:collect="always"
       xlink:href="#linearGradient55263"
       id="linearGradient55269"
       x1="50.074329"
       y1="123.76866"
       x2="54.726757"
       y2="96.3386"
       gradientUnits="userSpaceOnUse" />
    <linearGradient
       inkscape:collect="always"
       xlink:href="#linearGradient55263"
       id="linearGradient55271"
       x1="13.169296"
       y1="98.654198"
       x2="37.535698"
       y2="116.5862"
       gradientUnits="userSpaceOnUse" />
    <linearGradient
       inkscape:collect="always"
       xlink:href="#linearGradient55277"
       id="linearGradient55279"
       x1="45.297287"
       y1="79.238029"
       x2="32.530987"
       y2="121.1323"
       gradientUnits="userSpaceOnUse" />
    <linearGradient
       inkscape:collect="always"
       xlink:href="#linearGradient55277"
       id="linearGradient55281"
       x1="220.48799"
       y1="316.3338"
       x2="122.17684"
       y2="448.1239"
       gradientUnits="userSpaceOnUse" />
    <linearGradient
       inkscape:collect="always"
       xlink:href="#linearGradient55277"
       id="linearGradient55283"
       x1="50.074329"
       y1="123.76866"
       x2="54.726757"
       y2="96.3386"
       gradientUnits="userSpaceOnUse" />
    <linearGradient
       inkscape:collect="always"
       xlink:href="#linearGradient55277"
       id="linearGradient55285"
       x1="13.169296"
       y1="98.654198"
       x2="37.535698"
       y2="116.5862"
       gradientUnits="userSpaceOnUse" />
    <filter
       inkscape:collect="always"
       style="color-interpolation-filters:sRGB"
       id="filter58823"
       x="-0.18906068"
       y="-0.013787357"
       width="1.3781252"
       height="1.0275747">
      <feGaussianBlur
         inkscape:collect="always"
         stdDeviation="0.018775963"
         id="feGaussianBlur58825" />
    </filter>
    <filter
       inkscape:collect="always"
       style="color-interpolation-filters:sRGB"
       id="filter58827"
       x="-0.016659491"
       y="-0.013636682"
       width="1.033319"
       height="1.0272734">
      <feGaussianBlur
         inkscape:collect="always"
         stdDeviation="0.070964269"
         id="feGaussianBlur58829" />
    </filter>
    <filter
       inkscape:collect="always"
       style="color-interpolation-filters:sRGB"
       id="filter58831"
       x="-0.041462528"
       y="-0.026690901"
       width="1.0829232"
       height="1.0533818">
      <feGaussianBlur
         inkscape:collect="always"
         stdDeviation="0.018775963"
         id="feGaussianBlur58833" />
    </filter>
    <filter
       inkscape:collect="always"
       style="color-interpolation-filters:sRGB"
       id="filter58835"
       x="-0.017235005"
       y="-0.013624996"
       width="1.0499698"
       height="1.02725">
      <feGaussianBlur
         inkscape:collect="always"
         stdDeviation="0.018775963"
         id="feGaussianBlur58837" />
    </filter>
  </defs>
  <g
     inkscape:label="Calque 1"
     inkscape:groupmode="layer"
     id="layer1"
     transform="translate(-0.08313173,-0.00671179)">
    <text
       xml:space="preserve"
       transform="scale(0.26458333)"
       id="text3469"
       style="font-size:40px;line-height:3.05;font-family:sans-serif;white-space:pre;shape-inside:url(#rect3471)" />
    <g
       id="g59602"
       style="fill-rule:nonzero"
       transform="matrix(2.2809737,0,0,2.2809737,-31.46706,-125.15957)">
      <path
         id="text25679"
         style="font-size:25.3162px;line-height:3.05;font-family:sans-serif;opacity:1;mix-blend-mode:color;fill:url(#linearGradient55279);fill-opacity:1;fill-rule:nonzero;stroke:url(#linearGradient55265);stroke-width:0.60066;stroke-linecap:round;stroke-linejoin:round;stroke-miterlimit:4;stroke-dasharray:3.60396, 1.20132;stroke-dashoffset:0;stroke-opacity:0.5;paint-order:markers stroke fill;filter:url(#filter58823)"
         d="m 35.100429,85.978729 v 0.700882 c 0.608515,0.05013 1.217725,0.09249 1.826787,0.135375 v -0.836257 z m 0,1.353746 v 2.150664 c 0.06863,0.0095 0.137237,0.01915 0.205871,0.02861 0.540132,0.07449 1.080394,0.148571 1.620916,0.220686 v -0.244696 c -0.02965,-0.01561 -0.06042,-0.02845 -0.08838,-0.04853 -0.08609,-0.06184 -0.05572,-0.16497 0.02095,-0.269215 -0.06441,-0.158295 -0.06995,-0.325482 0.04547,-0.378028 0.0072,-0.0033 0.01475,-0.0042 0.02197,-0.0071 v -1.317984 c -0.609103,-0.04259 -1.21823,-0.08443 -1.826787,-0.134352 z m 0,2.807613 v 0.776487 c 0.02813,-0.02241 0.05598,-0.04492 0.08122,-0.06947 0.05768,-0.05612 0.09664,-0.08094 0.121583,-0.08225 0.174584,-0.0092 -0.340161,1.131368 0.03729,0.713144 0.07265,-0.0805 0.169751,-0.144587 0.218131,-0.241631 0.01901,-0.03812 -0.0047,-0.08258 -0.01684,-0.125668 0.01397,0.02723 0.02791,0.0545 0.04189,0.08173 0.126218,0.175377 0.138702,0.17538 0.235501,0.409188 0.02406,0.058 0.0065,0.128893 0.03372,0.185438 0.228776,0.474388 0.0088,-0.19397 0.197698,0.472534 0.0037,0.119197 0.0086,0.238327 0.01276,0.35759 0.282805,-0.05188 0.573054,-0.101802 0.863841,-0.150189 V 90.38887 c -0.570325,-0.07603 -1.140321,-0.154335 -1.710314,-0.232945 -0.09632,-0.01329 -0.02349,-0.003 -0.116473,-0.01582 z m 0,1.488609 v 1.178523 c 0.100504,-0.02145 0.210265,-0.04132 0.31417,-0.06233 -0.0047,-0.154968 -0.0094,-0.309774 -0.01431,-0.46487 -0.14999,-0.351245 0.06407,0.322069 -0.174197,-0.363211 -0.01933,-0.05556 -0.01943,-0.117067 -0.04138,-0.171645 -0.0084,-0.02087 -0.04977,-0.07341 -0.08429,-0.116472 z m 1.826787,1.482477 c -0.287513,0.03833 -0.575049,0.07608 -0.862821,0.112897 -0.0078,0.22253 -0.02642,0.444469 -0.07611,0.66461 -0.02519,0.132731 -0.04067,0.202861 -0.05466,0.34891 -7.84e-4,0.0088 -0.0013,0.01771 -0.0021,0.02656 0.330329,0.148081 0.662552,0.291865 0.99564,0.433708 z m -1.515172,0.190035 c -0.09008,0.01002 -0.180085,0.021 -0.270237,0.03014 0.02685,0.02727 0.05877,0.05947 0.06896,0.07152 0.05777,0.0683 0.111952,0.140399 0.167046,0.211489 0.01708,-0.10408 0.02749,-0.20856 0.03423,-0.313147 z m -0.311615,1.306745 v 0.568063 c 0.02079,-0.01112 0.04085,-0.02286 0.05721,-0.03934 0.01201,-0.01211 -0.01695,-0.0342 -0.01072,-0.05006 0.01703,-0.04309 0.05066,-0.07725 0.07612,-0.115963 0.01711,-0.09656 0.02532,-0.193989 0.03167,-0.291692 -0.05116,-0.02354 -0.102744,-0.0478 -0.154275,-0.07101 z m 1.082994,0.475598 c 0.0079,0.03709 0.01538,0.07439 0.02503,0.110855 0.139244,0.541397 0.141854,0.542088 0.263597,1.044681 0.0339,0.139968 0.06491,0.280273 0.100125,0.419916 0.0018,0.0072 0.0045,0.01431 0.0066,0.02145 0.09965,-0.03678 0.202471,-0.06558 0.303954,-0.09706 0.01412,-0.01033 0.02942,-0.0193 0.04444,-0.02861 V 95.407421 C 36.677992,95.302418 36.431297,95.1916 36.183423,95.083544 Z m -0.56142,0.444437 c -0.02309,0.02406 -0.04661,0.04393 -0.135885,0.133333 -7.84e-4,0.0024 -0.0016,0.0045 -0.0026,0.0061 -0.0048,0.0082 -0.01494,0.01956 -0.02605,0.03065 -0.05839,0.185267 0.11484,-0.133933 -0.172154,0.322857 -0.05955,0.0387 -0.09132,0.0614 -0.11341,0.07458 -0.01695,0.162202 0.05691,0.415692 0.08173,0.547118 0.02616,0.138479 0.05248,0.276985 0.07663,0.415828 0.0016,0.0092 0.0053,0.01964 0.0092,0.03014 0.07699,-0.02459 0.151877,-0.04979 0.182884,-0.05415 0.187322,-0.03373 0.235953,-0.04997 0.419916,-0.0562 0.0152,-5.23e-4 0.02011,1.2e-4 0.03218,0 -0.0034,-0.03252 -0.007,-0.06494 -0.0031,-0.09604 -0.04757,-0.158951 -0.0874,-0.32012 -0.129244,-0.480706 -0.0757,-0.290532 -0.146719,-0.582391 -0.220174,-0.873548 z m -0.164493,0.170112 c 10e-4,-0.0033 0.0024,-0.0076 0.0036,-0.01125 -0.01551,0.01569 -0.02783,0.02784 -0.04649,0.047 -0.01572,0.01614 0.01648,-0.0094 0.04291,-0.03576 z m 0.0036,-0.01125 c 0.0084,-0.0085 0.01747,-0.01797 0.02503,-0.02553 0.0083,-0.02291 0.0108,-0.07326 0.0041,-0.05568 -0.01324,0.03452 -0.02208,0.05983 -0.02912,0.08123 z m -0.360656,-0.123623 v 0.0092 c 0.01514,0.0013 0.03047,0.0016 0.04547,-5.24e-4 0.03179,-0.0044 -5.5e-5,-0.0058 -0.04547,-0.0087 z m 5.23e-4,1.562168 -5.23e-4,5.23e-4 v 0.0036 c 0.0016,0.0013 0.0029,0.0028 0.0071,0.0051 0.0107,0.0058 0.03129,0.0056 0.05772,0.0016 -0.0294,-0.0059 -0.05491,-0.01085 -0.06437,-0.01072 z m 1.826277,0.124136 c -0.03271,0.0078 -0.06665,0.0108 -0.09859,0.02145 -0.08322,0.02778 -0.167169,0.09085 -0.237543,0.139973 -0.01214,0.01146 -0.02451,0.02153 -0.03678,0.03167 -0.0035,0.01705 -0.0083,0.04212 -0.01125,0.05721 -0.0069,0.02684 -0.119305,0.573613 -0.216598,0.704458 -0.01622,0.02181 -0.06887,-0.0026 -0.07816,0.02299 -0.01527,0.04215 0.02139,0.08799 0.02145,0.132822 2.61e-4,0.211532 -0.04742,0.202053 -0.185949,0.398459 -0.09158,0.03564 -0.179282,0.08432 -0.274836,0.107279 -0.05265,0.01269 -0.108296,-0.0018 -0.162448,-0.0021 -0.182242,-5.23e-4 -0.364145,0.0052 -0.546095,0.01174 v 2.941967 c 0.608643,-0.0646 1.217592,-0.11848 1.826787,-0.15275 z m -1.08504,0.388755 c -0.01423,0.0016 -0.02747,0.0021 -0.04189,0.0041 -0.05313,0.007 -0.105302,0.02069 -0.157853,0.03116 -0.185018,0.06473 -0.357973,0.116548 -0.542007,0.100635 v 0.451078 c 0.09346,-0.0039 0.186906,-0.0085 0.280453,-0.01023 0.08752,-0.0016 0.17505,-0.0016 0.262576,-0.0016 0.0027,6e-6 0.0054,5.23e-4 0.0082,5.23e-4 0.0081,-0.02971 0.01734,-0.05605 0.02759,-0.07407 0.01119,-0.05628 0.0232,-0.112536 0.03934,-0.167559 0.02302,-0.07847 0.06515,-0.1497 0.09757,-0.224771 0.0087,-0.03644 0.01739,-0.07287 0.02605,-0.109321 z m -0.162958,0.501652 c -0.0049,0.02469 -0.01007,0.04934 -0.0148,0.07407 0.05086,0.0018 0.10198,0.0087 0.152232,0.0016 0.02098,-0.003 -0.04048,-0.01237 -0.06079,-0.01839 -0.02801,-0.09566 -0.05466,-0.09589 -0.07663,-0.05721 z m -0.0148,0.07407 c -0.0042,-1.55e-4 -0.0085,7.3e-5 -0.01276,0 -0.02704,0.09974 -0.0403,0.233538 -0.02912,0.192079 0.01705,-0.06326 0.02953,-0.127648 0.04189,-0.192079 z m 1.262812,4.115901 c -0.577586,0.0368 -1.198085,0.0959 -1.826787,0.15734 v 1.87021 c 0.04471,0.0525 0.09242,0.10672 0.136905,0.15938 0.439376,-0.22667 0.859763,-0.45015 1.242892,-0.6641 0.193254,-0.10792 0.330544,-0.18967 0.44699,-0.26155 z m 0,2.01273 c -0.02998,0.0171 -0.0455,0.0277 -0.07816,0.046 -0.3839,0.21437 -0.782513,0.42774 -1.18925,0.63958 0.200217,0.24655 0.3998,0.49795 0.598202,0.76423 0.474379,0.63672 -0.320636,-0.12806 0.337158,0.60637 0.03416,0.0381 0.07802,0.0653 0.123113,0.0909 0.0089,-0.13244 0.01742,-0.2649 0.02299,-0.39744 0.01397,-0.33268 -0.006,-0.30889 0.04649,-0.69781 0.01258,-0.0932 0.03721,-0.18465 0.05568,-0.27688 0.02844,-0.16318 0.05626,-0.32654 0.08378,-0.4899 z m -1.826787,1.01863 v 1.2761 c 0.282476,-0.005 0.578264,-0.009 0.818375,-0.0128 -0.174072,-0.20601 0.10102,-0.0852 -0.248272,-0.55427 -0.181199,-0.24333 -0.374557,-0.47694 -0.570103,-0.70905 z m 1.596395,1.90086 c -0.133363,0.004 -0.896689,0.0138 -1.596395,0.0245 v 3.74348 h 0.427068 c -0.02095,-0.1079 -0.0324,-0.21796 -0.04751,-0.32694 -0.06463,-0.46613 -0.02861,-0.92203 0.02095,-1.38643 0.04585,-0.35968 0.0083,-0.38874 0.273303,-0.72336 0.06483,-0.0819 0.158287,-0.13755 0.244696,-0.19617 0.02955,-0.0201 0.464381,-0.27407 0.546095,-0.30906 0.04343,-0.0186 0.08792,-0.0343 0.13231,-0.0506 -7.85e-4,-0.1733 -0.0032,-0.34786 -0.0036,-0.51136 10e-4,-0.088 0.0026,-0.17607 0.0031,-0.26411 z m 0.05824,1.46 c -0.135464,0.0752 -0.326519,0.18907 -0.366277,0.20996 -0.09315,0.0489 -0.143062,-0.003 -0.202296,0.1507 -0.03681,0.0954 -0.02587,0.20256 -0.03883,0.30395 -0.03459,0.31622 -0.06463,0.60657 -0.05006,0.92463 0.0018,0.0389 0.04729,0.50016 0.04393,0.56244 -5.23e-4,0.0111 -0.01998,-0.009 -0.03014,-0.0133 0.09071,0.0848 0.14059,0.13224 0.181351,0.1696 h 0.634471 v -1.95041 c -0.02189,-0.0338 -0.04432,-0.0711 -0.07101,-0.11903 -0.04101,-0.0809 -0.07335,-0.15859 -0.101148,-0.23856 z"
         transform="matrix(2.1642856,0,0,2.1642856,-15.734296,-130.46094)" />
      <path
         id="text27267"
         style="font-size:45.7079px;line-height:3.05;font-family:sans-serif;opacity:1;mix-blend-mode:color;fill:url(#linearGradient55281);fill-opacity:1;fill-rule:nonzero;stroke:url(#linearGradient55267);stroke-width:2.27021;stroke-linecap:round;stroke-linejoin:round;stroke-miterlimit:4;stroke-dasharray:13.6213, 4.54042;stroke-dashoffset:0;stroke-opacity:0.5;paint-order:markers stroke fill;filter:url(#filter58827)"
         transform="matrix(0.57263389,0,0,0.57263389,-15.734296,-130.46094)"
         d="m 191.83789,325.04102 -3.38672,5.47656 c 0.88801,1.56393 0.77816,1.38194 2.56445,3.99414 0.48058,0.70274 0.94348,1.41903 1.47266,2.08594 0.21421,0.26995 0.4441,0.52708 0.68164,0.77734 0.0299,-0.0403 0.0593,-0.0787 0.0918,-0.11719 0.21934,-0.25958 0.61597,-0.29195 0.92578,-0.43164 0.46517,-0.20974 0.93448,-0.40912 1.40039,-0.61719 2.26243,-1.01042 0.0319,-0.0581 3.46875,-1.48046 1.67131,-0.83144 3.4931,-1.19925 5.33789,-1.35743 0.16912,-0.0143 0.46291,-0.17943 0.50781,-0.0156 0.0184,0.067 0.035,0.12429 0.0527,0.1875 0.15726,0.0868 0.33765,0.22852 0.52344,0.39258 l 5.50195,-8.89453 z m -4.87109,7.875 -5.10157,8.24804 c 0.34205,0.0647 0.68236,0.14037 1.02539,0.19922 2.45508,0.42119 4.91213,0.8347 7.37696,1.19336 0.63576,-0.28793 1.26671,-0.59185 1.89062,-0.92187 0.77413,-0.40949 1.49864,-0.90669 2.25977,-1.33985 2.45101,-1.39482 1.84165,-1.49137 2.61719,-1.49609 0.0329,-0.0712 0.0758,-0.13306 0.14062,-0.17774 0.55514,-0.38259 0.982,-0.55864 1.3457,-0.57031 0.60618,-0.0194 1.03844,0.41713 1.60743,1.11524 0.41259,0.46816 0.8354,0.9286 1.25586,1.39062 l 2.89843,-4.6875 c -0.23408,0.0154 -0.46831,0.033 -0.69922,0.0723 -0.62955,0.10703 -1.26198,0.21688 -1.87304,0.40234 -0.5856,0.17775 -1.13695,0.4561 -1.70508,0.68359 -3.43648,1.41999 -1.10167,0.4257 -3.41602,1.45704 -0.49579,0.22086 -0.98561,0.45634 -1.49023,0.65624 -0.0804,0.0317 -0.22033,0.11365 -0.25586,0.0352 -0.12404,-0.27315 -0.0158,-1.16759 -0.13086,-0.89062 -0.21245,0.51072 -0.12394,1.10076 -0.18555,1.65039 -0.59288,0.10862 -1.18018,0.39235 -1.77929,0.32617 -0.3407,-0.0377 -0.57848,-0.37629 -0.82422,-0.61524 -0.52143,-0.507 -1.01499,-1.0453 -1.4668,-1.61523 -0.5426,-0.68446 -1.01957,-1.41903 -1.51172,-2.14063 -1.28358,-1.88192 -1.60247,-2.34397 -1.97851,-2.9746 z m 12.41406,6.76953 c -0.002,-3.3e-4 -0.007,0.002 -0.0117,0.008 -0.1326,0.15453 -0.25843,0.31338 -0.38281,0.47461 0.0601,-0.0174 0.12035,-0.0352 0.17969,-0.0547 0.0956,-0.0314 0.12585,-0.15952 0.16992,-0.25 0.0222,-0.0455 0.0609,-0.17543 0.0449,-0.17773 z m -1.67383,0.48047 c -0.0182,0.0128 0.0491,0.19981 0.11133,0.19726 0.0243,-9.9e-4 0.048,-0.004 0.0723,-0.006 -0.0546,-0.0635 -0.11083,-0.12628 -0.16992,-0.18554 -0.006,-0.006 -0.0111,-0.008 -0.0137,-0.006 z m 0.68359,0.7871 c -0.0218,0.0284 -0.0425,0.0576 -0.0645,0.0859 -0.19397,0.057 -0.4033,0.0773 -0.58203,0.17188 -0.71876,0.38013 -1.39859,0.83085 -2.09766,1.24609 -0.3097,0.18376 -0.61515,0.37412 -0.92187,0.5625 1.7206,0.0855 3.4629,0.12146 5.04492,0.14844 l 0.25195,-0.4082 c -0.54546,-0.60083 -1.09286,-1.19999 -1.63086,-1.80665 z m -17.92382,2.47266 -0.96875,1.56641 c 1.97228,-0.17417 3.94486,-0.34225 5.91797,-0.50781 0.10535,-0.0389 0.20925,-0.0802 0.31445,-0.11915 -1.07725,-0.18 -2.15395,-0.36112 -3.23047,-0.54492 -0.68031,-0.11615 -1.35621,-0.25949 -2.0332,-0.39453 z m 17.57617,2.5332 c -3.37335,0.2652 -6.7468,0.52985 -10.11914,0.8086 2.74988,0.52796 5.69238,1.11283 8.55273,1.72265 z m -19.68555,1.62891 c -0.16551,0.0149 -0.33059,0.0339 -0.49609,0.0488 l -0.25195,0.4082 c 0.24329,-0.16173 0.49892,-0.30444 0.74804,-0.45703 z m 4.01367,0.66211 c -0.60913,0.26006 -1.22346,0.59089 -2.61523,1.375 -0.54182,0.30526 -1.07115,0.63758 -1.57227,1.00586 -1.19395,0.87744 -2.116,1.93006 -3.13281,2.99023 -0.63813,0.54674 -1.09898,1.22666 -1.49805,1.95508 -0.37187,0.67878 -0.84651,1.01734 -1.2832,1.09961 l -6.6543,10.75977 c 0.31178,0.36138 0.44648,0.99082 0.18946,1.82617 -0.003,0.011 -0.006,0.0222 -0.01,0.0332 2.94193,1.22523 6.71131,2.82877 10.4961,4.30469 0.86654,-2.64355 1.03074,-3.56149 2.07031,-5.61523 0.21982,-0.43428 0.44035,-0.86892 0.67578,-1.29493 0.12486,-0.22593 0.14638,-0.67074 0.4043,-0.66015 0.34422,0.014 0.5749,1.00138 0.7539,0.70703 0.39167,-0.644 0.12522,-1.50273 0.1875,-2.25391 0.25237,-0.0473 0.49919,-0.13306 0.75586,-0.14062 0.53318,-0.0153 1.78288,0.31795 2.14258,0.43164 0.30818,0.0974 0.58669,0.27263 0.89453,0.37109 0.56294,0.18005 1.13215,0.34894 1.71094,0.46875 l 9.1914,-14.86133 c -3.46496,-0.73408 -6.56861,-1.32458 -11.86523,-2.36328 -0.33312,-0.0549 -0.53767,-0.0885 -0.8418,-0.13867 z m -0.59765,18.68164 c -0.21697,0.40826 -0.46539,0.78283 -0.60547,1.03711 -1.27235,2.30966 -1.68517,3.86891 -2.55274,6.51563 0.50541,0.18785 0.96991,0.33953 1.46289,0.51562 l 4.45313,-7.19531 c -0.3151,-0.0842 -0.48649,-0.1064 -0.99219,-0.26172 -0.40652,-0.12485 -0.7822,-0.33998 -1.1875,-0.46875 -0.18918,-0.0601 -0.38335,-0.10275 -0.57812,-0.14258 z m -16.74219,4.73828 c -0.36374,1.05763 -0.73244,2.11368 -1.10547,3.16797 -0.36864,1.04188 -0.8194,2.05845 -1.12305,3.12109 -0.18997,0.66488 -0.33571,1.34158 -0.47461,2.01954 0.0511,-0.002 0.097,-0.01 0.1504,-0.01 0.82884,0 1.65777,-0.005 2.48632,-0.0273 0.62875,0 0.87087,-0.007 1.54297,0.0312 0.63494,0.0378 1.26161,0.1594 1.90039,0.0195 1.24742,-0.24337 2.51058,-0.3674 3.77539,-0.36719 0.70454,1.2e-4 1.40778,0.0461 2.10938,0.12305 0.41134,-1.26378 0.79391,-2.53677 1.2168,-3.79688 -3.5632,-1.36144 -7.0741,-2.86383 -10.47852,-4.28125 z m -3.4043,2.21289 -7.10547,11.48633 c 0.94854,0.0657 1.96056,0.15387 2.20704,0.9375 1.11335,3.53979 -3.43834,3.43733 -4.98047,3.54688 l -7.79688,12.60546 c 0.1207,-0.14823 0.23671,-0.30253 0.37305,-0.43359 1.3428,-1.28976 1.16114,-1.0963 2.49023,-2.05078 0.0312,-0.0221 1.66227,-1.20569 2.06446,-1.42188 1.09486,-0.58843 1.2715,-0.62166 2.40429,-0.96484 0.47692,-0.1446 0.94296,-0.34276 1.43555,-0.41797 0.34985,-0.0518 0.70877,0.0258 1.0625,0.0371 0.0576,0.0684 0.11847,0.13409 0.17773,0.20117 0.12732,-0.22238 0.25356,-0.44558 0.38086,-0.66797 1.69492,-2.89254 3.40695,-5.77181 5.19336,-8.60937 0.97158,-1.54326 1.15462,-1.70346 2.11328,-3.25 0.12643,-0.20394 0.23189,-0.42072 0.34766,-0.63086 0.18573,-0.0508 0.41354,-0.1251 0.64063,-0.19727 -0.15151,-0.16063 -0.24089,-0.24853 -0.48243,-0.51562 -0.23993,0.15155 -0.67593,0.19511 -2.15039,0.88672 -0.90852,-1.80922 -0.84696,-1.0811 -0.39062,-3.51953 0.23808,-1.27219 0.49602,-2.54457 0.85156,-3.78907 0.30141,-1.05501 0.74899,-2.06141 1.11523,-3.0957 0.0299,-0.0846 0.0205,-0.0568 0.0488,-0.13672 z m 16.21485,2.9336 c -0.35478,1.05791 -0.67486,2.12696 -1.02149,3.1875 0.0565,-0.005 0.11367,-1.6e-4 0.16992,-0.01 l 1.77344,-2.86914 c -0.30719,-0.10705 -0.61492,-0.19846 -0.92187,-0.30859 z m -5.84571,5.28711 c -1.04122,0.0136 -2.07932,0.11427 -3.10156,0.32617 -0.91054,0.20258 -1.80797,0.0572 -2.7168,0.006 -0.22216,-0.0113 -0.97475,-0.006 -1.21093,-0.006 -0.15296,0.005 -0.30601,0.005 -0.45899,0.008 0.65182,0.63735 0.71516,0.50686 1.61133,1.35742 1.75996,1.67039 3.4347,3.42935 5.10547,5.18946 0.10829,-0.18169 0.23048,-0.36814 0.28125,-0.53321 0.64781,-2.10607 1.34451,-4.19639 2.01562,-6.29492 -0.50841,-0.0322 -1.01713,-0.0593 -1.52539,-0.0527 z m -9.45703,3.41601 c -0.0506,0.0828 -0.10534,0.16437 -0.15625,0.24609 -0.0328,0.0524 0.0525,0.1274 0.11719,0.14258 0.0131,-0.14461 0.0264,-0.2607 0.0391,-0.38867 z m 0.99219,0.99805 c -0.76733,1.25519 -0.90406,1.36138 -1.91602,2.96875 -1.76474,2.80305 -3.45478,5.64635 -5.1289,8.5039 -0.32287,0.56406 -0.59806,1.15951 -0.96875,1.69336 -0.26819,0.38621 -0.50539,0.66051 -0.75977,0.83203 -0.0505,0.10923 -0.0961,0.21764 -0.16601,0.33204 -0.39152,0.64008 -0.76647,1.29751 -1.20508,1.90625 1.44442,-0.12539 2.88983,-0.23953 4.33398,-0.36719 1.16211,-0.10273 2.32323,-0.21114 3.48438,-0.32422 1.47583,-1.21962 2.94329,-2.4493 4.41015,-3.67969 l 4.37696,-7.07226 c -0.0955,-0.0965 -0.19056,-0.19293 -0.27149,-0.30274 -0.076,-0.0802 -0.15253,-0.15999 -0.22851,-0.24023 -0.59879,-0.48717 -1.23007,-0.93395 -1.84961,-1.39453 -1.34394,-0.99921 -2.70434,-1.95573 -4.11133,-2.85547 z m -11.2832,13.39062 c -0.0852,0.0184 -0.172,0.0331 -0.25391,0.0586 -0.36611,0.11414 -0.74009,0.20598 -1.0957,0.34961 -0.9672,0.39057 -1.80901,1.09201 -2.64649,1.68554 -1.00933,0.72494 -1.1105,0.7613 -1.71093,1.33399 1.37058,-0.10688 2.73946,-0.23426 4.10937,-0.34961 0.12067,-0.43232 0.25553,-0.8088 0.5332,-1.38086 0.37383,-0.55416 0.71723,-1.12665 1.06446,-1.69727 z m 5.46679,4.97657 c -1.69217,0.14933 -3.38535,0.29234 -5.07812,0.4375 -0.13244,0.4139 -0.27287,0.82655 -0.4668,1.21484 -0.16694,0.33426 -0.42188,0.61737 -0.63281,0.92578 -0.42413,0.4035 -0.80026,0.8636 -1.27149,1.21094 -0.64704,0.47697 -2.97893,1.13069 -3.32226,1.21875 -1.87728,0.48087 -3.82753,0.67617 -5.69922,1.1875 0.064,0.19879 0.19437,0.41239 0.29492,0.59375 0.13395,0.10216 0.24468,0.55394 0.35742,0.61328 0.037,0.0193 -0.008,-0.12246 0.0332,-0.12109 0.0892,0.003 0.16278,0.0783 0.23633,0.1289 0.18131,0.12469 0.3511,0.26301 0.52734,0.39453 0.56047,0.44723 1.26975,1.08355 1.88086,1.43164 0.80865,0.46088 1.90883,0.91496 2.77734,1.29102 2.25886,0.97848 1.26599,3.26574 -0.99023,2.28125 -1.26044,-0.55 -1.99651,-0.83808 -3.25195,-1.5625 -0.28565,-0.16483 -0.53442,-0.38512 -0.79883,-0.58203 -0.97461,-0.72662 -0.70031,-0.47643 -1.13477,-0.89063 -0.40064,-0.32859 -0.16745,-0.15757 -0.7168,-0.48828 -0.64095,-0.51658 -0.77627,-0.72164 -1.12304,-1.34375 -0.15671,-0.30919 -0.28047,-0.60649 -0.38672,-0.91211 -0.48178,0.26736 -1.09708,0.63344 -1.31055,0.75196 l -1,1.61718 c -0.004,0.0572 -0.004,0.11539 -0.0117,0.17188 -0.13224,1.20899 -0.24711,2.31909 -0.1914,3.53515 0.007,0.14892 0.18082,1.91232 0.16797,2.15039 -0.002,0.0423 -0.0764,-0.0357 -0.11524,-0.0508 0.37481,0.35032 0.56712,0.53356 0.72852,0.67969 h 14.55273 l 4.41602,-7.14062 c -0.0858,0.002 -0.17206,0.0101 -0.25782,0.0117 -0.11599,0.002 -4.41568,-0.0433 -4.91601,-1.21484 -0.31468,-0.73682 0.13768,-1.59633 0.20703,-2.39453 2.08963,-1.81034 4.31619,-3.44979 6.49609,-5.14648 z m 3.77735,0.16601 c -0.20093,0.16635 -0.4012,0.33349 -0.60352,0.49805 -2.29457,1.86631 -4.69254,3.60302 -6.98633,5.4707 0.60025,0.0924 1.20721,0.14463 1.8125,0.14453 0.67171,0 1.34786,-0.0132 2.02149,-0.043 z m -11.63867,0.51172 c -2.54184,0.20952 -5.08444,0.40552 -7.62891,0.57422 -0.22003,0.0928 -0.4446,0.15936 -0.67383,0.20312 l -0.34766,0.5625 c -9e-4,0.1556 -2e-4,0.31127 -0.002,0.4668 0.11009,0.0993 0.10743,0.58083 0.082,1.13477 1.71113,-0.40284 3.46864,-0.61591 5.16992,-1.05079 0.0301,-0.008 2.22297,-0.60209 2.7168,-1.01171 0.23436,-0.19438 0.38496,-0.47161 0.57813,-0.70703 0.035,-0.0574 0.0676,-0.11597 0.10547,-0.17188 z m -15.8711,13.01562 -1.35547,2.19141 h 1.63477 c -0.0841,-0.42248 -0.12828,-0.85411 -0.1875,-1.28125 -0.0422,-0.30467 -0.0704,-0.60742 -0.0918,-0.91016 z" />
      <path
         id="text27799"
         style="font-size:18.412px;line-height:3.05;font-family:sans-serif;opacity:1;mix-blend-mode:color;fill:url(#linearGradient55283);fill-opacity:1;fill-rule:nonzero;stroke:url(#linearGradient55269);stroke-width:0.60066;stroke-linecap:round;stroke-linejoin:round;stroke-miterlimit:4;stroke-dasharray:3.60396, 1.20132;stroke-dashoffset:0;stroke-opacity:0.5;paint-order:markers stroke fill;filter:url(#filter58831)"
         d="m 45.064411,98.816201 -1.736813,0.0576 c -0.01281,0.0342 -0.02569,0.06834 -0.03877,0.10246 l 0.613643,1.209569 c 0.05921,0.001 0.119017,0.003 0.207686,0.008 0.180044,0.0107 0.357743,0.0452 0.538877,0.006 0.352262,-0.0687 0.708957,-0.10389 1.066124,-0.10412 z m 0.602011,1.981609 c -0.295249,0.004 -0.589614,0.0324 -0.879481,0.0925 -0.17337,0.0386 -0.345157,0.0318 -0.517278,0.0194 l 0.655182,1.29153 c 0.175322,0.18163 0.348891,0.36484 0.522816,0.54774 0.03071,-0.0515 0.06535,-0.10439 0.07975,-0.15119 0.181357,-0.58961 0.376567,-1.17476 0.564352,-1.76229 l -0.01384,-0.0271 c -0.137195,-0.008 -0.274388,-0.0123 -0.411498,-0.0105 z m 0.879486,0.93043 c -0.112977,0.35911 -0.233814,0.7157 -0.344485,1.07554 -0.03011,0.0979 -0.002,0.26617 -0.06148,0.32842 0.01023,0.0158 -0.0081,0.0228 -0.04375,0.0238 -0.0011,1.9e-4 -0.002,7.6e-4 -0.0034,7.6e-4 -0.01763,0.002 -0.03547,10e-5 -0.05372,-0.003 -0.06762,-0.006 -0.164968,-0.0301 -0.259195,-0.0548 0.05219,0.0563 0.101937,0.11038 0.133475,0.14676 0.03216,0.0153 0.07332,0.029 0.09747,0.046 -0.01043,0.0199 -0.01625,0.027 -0.02436,0.0426 0.02558,0.0311 0.03715,0.044 0.08141,0.0986 0.02232,0.0276 0.04529,0.0548 0.06757,0.0825 0.322323,-0.25759 0.634462,-0.50271 0.94151,-0.74379 z m -1.005205,1.11708 c 0.0011,7.6e-4 0.0037,0.005 0.005,0.006 0.042,0.0442 0.08429,0.0882 0.126273,0.13237 0.03409,0.004 0.06821,0.008 0.101906,0.0133 -0.086,-0.0693 -0.167335,-0.1366 -0.233164,-0.15175 z m 0.471309,0.54885 c -0.01508,0.006 -0.04645,0.039 -0.09913,0.10854 -0.06446,0.0851 -0.13478,0.16647 -0.201039,0.25034 l 0.03544,0.0692 c 0.06319,-0.0509 0.117105,-0.0918 0.17944,-0.14178 0.06688,-0.16333 0.11966,-0.29968 0.08529,-0.28633 z m 1.391223,0.0183 c -0.437047,0.34377 -0.861411,0.67207 -1.330855,1.05117 l 0.750995,1.47984 c 0.03282,0.004 0.06611,0.002 0.09858,0.009 0.06366,0.0148 0.124092,0.0378 0.183316,0.0637 0.159073,-0.0162 0.250978,-0.0443 0.616414,-0.15618 -0.125411,0.13905 -0.216283,0.24454 -0.296852,0.33949 0.1623,0.11281 0.318598,0.24006 0.486263,0.33951 -0.381044,0.10009 -0.527736,0.13539 -0.704474,0.16005 l 2.565345,5.05758 1.847023,-0.0609 z"
         transform="matrix(2.3457475,0,0,2.3457475,-23.568639,-151.49231)" />
      <path
         id="text32201"
         style="font-size:35.4551px;line-height:3.05;font-family:sans-serif;opacity:1;mix-blend-mode:color;fill:url(#linearGradient55285);fill-opacity:1;fill-rule:nonzero;stroke:url(#linearGradient55271);stroke-width:0.60066;stroke-linecap:round;stroke-linejoin:round;stroke-miterlimit:4;stroke-dasharray:3.60396, 1.20132;stroke-dashoffset:0;stroke-opacity:0.5;paint-order:markers stroke fill;filter:url(#filter58835)"
         d="m 14.00638,85.979248 v 6.438884 c 0.01718,-0.02357 0.03526,-0.03412 0.05374,-0.03411 0.02812,1.3e-5 0.05746,0.02892 0.08733,0.0677 0.09714,-0.03511 0.19461,-0.06925 0.291972,-0.103871 0.635985,-0.236392 0.547742,-0.203932 1.21853,-0.452686 0.02478,-0.0092 0.04956,-0.01839 0.07441,-0.02739 -0.0021,-0.03218 -0.0031,-0.0641 5.29e-4,-0.09612 0.02351,-0.205798 0.126582,-0.422989 0.223242,-0.607716 0.08688,-0.09703 0.283141,-0.326329 0.397392,-0.42323 0.301188,-0.255447 0.255429,-0.210288 0.320394,-0.261482 -0.0032,-0.05651 -0.0088,-0.149371 -0.01188,-0.204121 h 0.141593 l 0.04134,0.06459 c 0.0081,0.0038 -0.05197,0.06808 0.274402,-0.19327 -0.05079,-0.01487 -0.101646,-0.02959 -0.152445,-0.04444 -0.100362,-0.03395 -0.713264,-0.243358 -0.975651,-0.322977 -0.177346,0.05679 -0.315463,0.101605 -0.563273,0.180867 -0.096,0.0086 -0.252518,0.115509 -0.287838,0.02585 -0.103188,-0.262016 -0.138599,-0.429929 -0.119889,-0.544152 -0.07217,-0.08446 -0.03561,-0.107702 0.04599,-0.111107 0.07774,-0.103274 0.240171,-0.138498 0.457853,-0.196368 0.08009,-0.0213 0.163353,-0.05252 0.245463,-0.04134 0.04863,0.0066 0.09415,0.01455 0.140043,0.02222 0.439543,-0.141251 0.829305,-0.269476 1.570447,-0.527101 0.439724,-0.152849 0.87642,-0.314719 1.314648,-0.471805 0.07271,-0.02606 0.145616,-0.05163 0.218591,-0.077 l -1.324466,-2.05982 z m 17.065625,0 v 0.383439 c 0.990841,0.100444 1.98221,0.194233 2.974496,0.279051 v -0.66249 z m 0,1.044379 v 2.013831 c 0.99147,0.138398 1.982787,0.27782 2.974496,0.414446 v -2.14974 c -0.992344,-0.08451 -1.983621,-0.178337 -2.974496,-0.278537 z m -12.45402,1.855703 c -0.304675,0.110495 -0.609586,0.220702 -0.915707,0.327109 -0.304996,0.106019 -0.457078,0.156044 -0.661458,0.225312 0.04589,0.01566 0.08815,0.03031 0.136426,0.04651 0.181689,0.05913 0.363908,0.115266 0.546736,0.170532 0.299693,-0.252765 0.597603,-0.511728 0.894003,-0.769461 z m 0.963765,0.04392 c -0.04853,0.03736 -0.09263,0.08046 -0.143143,0.115239 -0.327342,0.284255 -0.64017,0.557401 -0.957565,0.829406 0.64651,0.182332 1.294445,0.359587 1.939417,0.546737 0.01012,-0.04533 0.0189,-0.09093 0.03307,-0.134876 z m 11.490255,0.785482 v 2.389002 c 0.0452,0.05244 0.07017,0.121042 0.04806,0.220657 0.0043,-0.004 0.0088,-0.0078 0.01291,-0.01188 0.05793,0.05233 0.122304,0.09828 0.173633,0.157096 0.371565,0.425834 0.717005,0.888981 1.015442,1.369425 0.03523,0.05672 0.06403,0.117139 0.09612,0.175699 0.06002,0.09211 0.119814,0.183843 0.179834,0.275953 0.168648,0.246493 0.17303,0.227507 0.297657,0.537435 0.02651,0.06591 0.05579,0.133313 0.06149,0.204123 0.03248,0.403326 -0.03585,0.805095 -0.07286,1.205092 -0.02617,0.434438 0.0098,0.871665 0.04496,1.30483 0.01016,0.121915 -0.0047,0.248714 0.03049,0.365871 0.0422,0.140383 0.182922,0.26293 0.320911,0.307991 0.02439,0.008 -0.09385,-0.03696 -0.06821,-0.03566 0.05653,0.003 0.109878,0.02678 0.164848,0.04031 0.154051,0.04565 0.301422,0.108167 0.457338,0.147278 0.03249,0.0081 0.06474,0.02074 0.09818,0.02273 0.03785,0.0024 0.07579,0.0019 0.113689,5.29e-4 v -1.617988 c -0.03939,-0.210211 -0.07286,-0.413496 -0.06511,-0.631486 0.015,-0.101711 0.02278,-0.220181 0.06511,-0.319879 V 94.471756 C 33.682832,94.302113 33.326494,94.119706 33.014,93.87231 c -0.143999,-0.114001 -0.293055,-0.473395 -0.120922,-0.537434 0.218741,-0.08138 0.484227,-0.160497 0.776181,-0.237713 0.05281,-0.129794 0.199253,-0.199154 0.377238,-0.141594 V 90.1175 C 32.025596,89.83937 31.621146,89.783665 31.072001,89.70874 Z M 17.884696,90.37019 c -0.05728,0.04743 -0.112624,0.09433 -0.171049,0.142111 -0.710732,0.581249 -0.27571,0.188812 -0.51418,0.378788 l 3.198771,4.980059 c 0.02847,0.02355 0.05681,0.04724 0.08527,0.07079 0.282808,-0.267647 0.570204,-0.530431 0.854728,-0.796332 -0.05914,-0.113901 -0.116409,-0.228629 -0.178284,-0.341064 -0.02288,-0.0363 -0.04586,-0.07274 -0.06873,-0.109037 -0.227884,-0.361612 -0.06389,-0.637136 0.172599,-0.627354 0.123876,0.0051 0.267511,0.08878 0.385506,0.279053 0.02914,0.04698 0.0582,0.09358 0.08733,0.14056 0.0348,0.06361 0.06683,0.128678 0.100769,0.192755 0.114888,-0.10554 0.226901,-0.214231 0.342615,-0.318845 0.104939,-0.09487 0.372572,-0.318682 0.57981,-0.495061 L 21.11499,91.308639 c -0.05096,-0.01551 -0.201645,-0.06442 -0.251147,-0.07907 -0.06755,0.255516 -0.125508,0.513958 -0.184485,0.771528 0.0016,0.0465 0.01897,0.569896 0.02739,0.661977 0.01069,0.0045 0.02088,0.0085 0.02946,0.01035 -0.01167,-0.0019 -0.01955,-0.0035 -0.02894,-0.0052 2.91e-4,0.0027 7.67e-4,0.0093 0.001,0.01085 0.0071,0.04195 0.08961,0.143156 0.05994,0.112655 -0.07119,-0.0732 -0.107307,-0.113493 -0.12144,-0.134358 -0.04868,-0.0092 -0.03771,-0.0031 -0.148828,0.03307 -0.619257,0.201826 0.952765,0.325493 0.345198,0.560173 -0.199353,0.077 -0.09145,0.05771 -0.326078,0.04289 -0.150565,-0.05588 -0.264032,-0.110765 -0.363802,-0.2682 -0.202392,-0.31937 -0.09099,-0.824404 -0.115238,-1.170987 0.06154,-0.268735 0.123902,-0.538332 0.19482,-0.80512 -0.307966,-0.08699 -0.488282,-0.137244 -1.206128,-0.344683 -0.38104,-0.110109 -0.761463,-0.222676 -1.142049,-0.334346 z m -1.163753,0.932244 c -0.0581,0.06054 -0.115678,0.121965 -0.184485,0.171048 -0.03759,0.06754 -0.0671,0.1433 -0.09767,0.213942 -0.01723,0.03981 -0.02357,0.08496 -0.04858,0.120404 -0.006,0.0085 -0.02007,-0.0059 -0.02997,-0.0088 -0.636184,-0.163883 -0.166351,-0.121539 0.03101,0.497645 0.01621,0.05086 -0.08891,0.05908 -0.137976,0.0801 -0.119648,0.05125 -0.244346,0.09065 -0.366386,0.135911 -0.642343,0.238204 -0.612319,0.226759 -1.227315,0.455269 -0.01345,0.0048 -0.02686,0.0097 -0.04031,0.01447 0.121897,0.35881 0.270171,0.710512 0.33538,1.085721 0.02418,0.09804 0.04575,0.197286 0.07286,0.294555 0.08165,0.29291 0.357756,0.696307 0.561723,0.902787 0.08954,0.09065 0.19918,0.159166 0.29869,0.238747 0.08287,0.06998 0.152314,0.159795 0.248563,0.209807 0.06448,0.03352 0.145381,0.01243 0.215491,0.03152 0.119886,0.03264 0.23873,0.07174 0.351917,0.122989 0.07755,0.03511 0.151783,0.0773 0.224792,0.121441 -0.01506,-0.890532 -0.04066,-1.770112 -0.08992,-2.626198 -0.04726,-0.821426 -0.08116,-1.419212 -0.117822,-2.061372 z m 14.351062,1.904275 v 7.080711 c 0,0.27021 0.0033,0.55692 0.0062,0.84129 0.06246,-0.27166 0.141168,-0.43028 0.367935,-0.20929 0.36477,0.35547 0.60769,0.82593 0.990637,1.16324 0.04466,0.0525 0.08921,0.10509 0.133842,0.15761 0.49139,-0.064 0.98357,-0.12255 1.47588,-0.17932 v -3.024621 c -0.08863,-0.0019 -0.17739,-0.0037 -0.265618,-0.01138 -0.04097,-0.0036 -0.08012,-0.01844 -0.119888,-0.02894 -0.154114,-0.04069 -0.30227,-0.09466 -0.453202,-0.145209 -0.0857,-0.02666 -0.17717,-0.0358 -0.2589,-0.07287 -0.333875,-0.151443 -0.543046,-0.480235 -0.644922,-0.821137 -0.03519,-0.117769 -0.02029,-0.244928 -0.03049,-0.367419 -0.03776,-0.470969 -0.07564,-0.94624 -0.04393,-1.418519 0.11049,-1.189445 -0.04776,0.487532 0.06718,-0.648023 0.01069,-0.105478 0.0277,-0.210756 0.02739,-0.316777 -1.19e-4,-0.03941 -0.01545,-0.07769 -0.02894,-0.114721 -0.09075,-0.24928 -0.09233,-0.218826 -0.249597,-0.449069 -0.06883,-0.106971 -0.137359,-0.213929 -0.20619,-0.320911 -0.02273,-0.04287 -0.04266,-0.08741 -0.06821,-0.128672 -0.183473,-0.296286 -0.316444,-0.481306 -0.532784,-0.765328 -0.07765,-0.101947 -0.122671,-0.162203 -0.166399,-0.22066 z m -17.065625,0.01498 v 3.402894 c 0.109547,-0.01863 0.219386,-0.04375 0.326595,-0.0217 0.114846,0.02363 0.237054,0.31637 0.264583,0.38499 0.16807,0.418978 0.278528,0.861959 0.388607,1.298628 0.06254,0.189187 0.111836,0.38363 0.187586,0.567925 0.05693,0.138504 0.177102,0.251029 0.208772,0.397391 0.03933,0.181769 0.07091,0.307419 0.09457,0.409279 0.191076,-0.164418 0.371039,-0.342159 0.550354,-0.519351 0.517048,-0.510918 0.737761,-0.73102 0.917774,-0.936892 v -1.041797 c 0,-0.128855 -0.0045,-0.253209 -0.0052,-0.381373 -0.06753,-0.04836 -0.154045,-0.105479 -0.290938,-0.19327 -0.08461,-0.05426 -0.172353,-0.104733 -0.264583,-0.144693 -0.07693,-0.03333 -0.158696,-0.05462 -0.240296,-0.0739 -0.02606,-0.0062 -0.05678,0.01085 -0.08062,-0.0016 -0.185941,-0.09517 -0.36075,-0.211306 -0.541052,-0.316775 -0.114319,-0.09038 -0.239057,-0.168251 -0.342615,-0.270785 -0.296443,-0.293515 -0.641564,-0.768641 -0.766362,-1.181841 -0.03665,-0.12134 -0.0641,-0.245292 -0.09612,-0.367934 -0.05986,-0.348875 -0.195864,-0.67631 -0.311092,-1.009243 z m 19.749698,0.264068 c -0.015,7.93e-4 -0.02995,0.0028 -0.04496,0.0036 0.03058,0.01656 0.06051,0.03434 0.09095,0.05116 -0.01625,-0.01828 -0.03262,-0.03659 -0.04599,-0.05478 z m -10.635526,0.942062 c -0.174791,0.149227 -0.439431,0.367424 -0.513147,0.43408 -0.154588,0.139785 -0.304702,0.284454 -0.457853,0.425816 0.279034,0.561575 0.548756,1.128416 0.861446,1.672248 0.07963,0.154112 0.248192,0.442428 0.309542,0.646472 0.110855,0.36866 0.139972,0.747456 0.185002,1.127581 0.786402,0.755438 1.573976,1.509504 2.352828,2.272724 0.627702,0.61512 1.228745,1.25805 1.853633,1.87637 0.07666,-0.0144 0.153284,-0.029 0.22996,-0.0434 0.01098,-0.0903 0.04232,-0.17853 0.116274,-0.27492 0.05285,-0.0731 0.09068,-0.12373 0.139525,-0.20412 0.0035,-0.006 0.0058,-0.0141 0.0083,-0.0222 z m -1.472778,1.327568 c -0.218381,0.204745 -0.439924,0.406064 -0.657324,0.611849 0.149269,0.127336 0.297453,0.255833 0.442867,0.387572 0.444511,0.402709 0.876031,0.8192 1.30638,1.237133 -0.01553,-0.07355 -0.03296,-0.147119 -0.05633,-0.220657 -0.05746,-0.180792 -0.167729,-0.339974 -0.255799,-0.507979 -0.283545,-0.490111 -0.529749,-1.000191 -0.779797,-1.507918 z m -7.585067,1.6862 c -0.01874,0.01982 -0.03763,0.03955 -0.05633,0.05943 v 3.608563 c 0.149531,0.1411 0.300032,0.28137 0.445968,0.42581 0.19974,0.13896 0.399705,0.27755 0.599446,0.41652 0.348377,0.24296 0.696294,0.4865 1.044898,0.72915 0.241493,0.16809 0.490458,0.32638 0.725537,0.50333 0.02847,0.0214 0.0851,0.0678 0.12299,0.0972 v -1.99419 c -0.212138,-0.11449 -0.423523,-0.23048 -0.639238,-0.33797 -0.380358,-0.18953 -0.432118,-0.044 -0.593762,-0.63458 -0.10792,0.082 -0.743849,0.54934 -0.955497,0.2651 -0.12724,-0.17088 -0.05304,-0.42268 -0.07958,-0.63407 0.12662,-0.155249 0.192984,-0.258042 0.33538,-0.378788 0.0292,-0.02477 0.132418,-0.05931 0.09457,-0.06511 -0.105624,-0.01617 -0.229754,0.09001 -0.318844,0.03101 -0.11703,-0.07751 -0.143577,-0.242737 -0.196887,-0.372586 -0.08884,-0.216382 -0.15216,-0.441876 -0.22841,-0.663009 -0.09097,-0.352862 -0.180834,-0.710049 -0.30024,-1.055751 z m 7.65483,0.483693 1.029395,1.60197 c 0.0043,-0.03534 0.009,-0.07067 0.01343,-0.10594 0.01833,-0.14447 0.04183,-0.289155 0.06201,-0.43408 -0.367473,-0.354828 -0.735547,-0.708965 -1.104842,-1.06195 z m 1.688269,1.626256 c -0.03407,0.257916 -0.07041,0.516794 -0.153479,0.762224 l 1.963188,3.05563 c 0.571886,-0.11394 1.143033,-0.23153 1.716173,-0.339 -0.514511,-0.52081 -1.019873,-1.05103 -1.54254,-1.56321 -0.656528,-0.64336 -1.32036,-1.27901 -1.983342,-1.915644 z m -6.997505,0.136943 c -0.07982,0.07904 -0.160254,0.157882 -0.241846,0.235127 0.174415,-0.07643 0.312492,-0.148931 0.241846,-0.235127 z M 14.995467,99.9758 c -0.06742,0.0089 -0.184834,0.10128 -0.140043,0.07389 0.04487,-0.0274 0.09241,-0.05098 0.140043,-0.07389 z m 1.949752,0.0078 c -0.07971,0.06285 -0.113343,0.09087 -0.203605,0.16227 -0.06877,0.062 -0.138521,0.12293 -0.20774,0.18448 0.0015,7.9e-4 0.0032,0.002 0.0047,0.003 0.128651,0.0636 0.270562,0.14142 0.406693,0.21238 z m -0.650606,0.56431 c -0.01114,0.0104 -0.02251,0.0205 -0.03359,0.031 -0.0068,0.006 0.02409,0.004 0.02739,-0.005 0.0031,-0.008 0.0038,-0.0177 0.0062,-0.0264 z m 14.78721,1.00149 c 2.2e-5,0.002 -2.1e-5,0.003 0,0.005 0.03261,0.0309 0.02604,0.0234 0,-0.005 z m 0.465606,0.43873 c -0.0036,0.0144 -0.0063,0.0291 -0.01035,0.0434 -0.03481,0.12439 -0.07231,0.24234 -0.111104,0.35812 0.138338,-0.018 0.27703,-0.0356 0.415478,-0.0538 -0.08249,-0.12784 -0.184986,-0.24006 -0.294037,-0.34778 z m -17.541049,0.0269 v 5.7857 c 0.01967,-0.0126 0.03881,-0.0259 0.05995,-0.0367 0.05602,-0.14692 0.114131,-0.29133 0.241329,-0.36949 0.07449,-0.0458 0.141785,0.0542 0.205672,0.14366 0.122336,-0.17852 0.227024,-0.37268 0.382405,-0.52245 0.472285,-0.4552 1.389136,-0.92844 2.049488,-1.26142 v -1.62884 c -0.186517,-0.15727 -0.372408,-0.30532 -0.498161,-0.39998 -0.235484,-0.17724 -0.484667,-0.33598 -0.726571,-0.50436 -1.161971,-0.8088 -0.791577,-0.54791 -1.714107,-1.20613 z m 20.040121,0.7152 c -0.328306,0.0341 -0.648033,0.0605 -0.97617,0.0977 0.173294,0.20393 0.345972,0.40844 0.519867,0.61185 0.156818,0.18344 0.303628,0.35488 0.456303,0.53175 z m -1.761133,0.18966 c -0.377515,0.0448 -0.743847,0.0893 -1.103291,0.13384 -0.01934,0.0502 -0.03843,0.0998 -0.05736,0.14934 0.03646,0.71854 0.0696,1.41932 0.0894,2.05466 l 0.04547,0.72863 c 0.188706,-0.15607 0.27201,-0.10649 0.133326,0.37983 0.841902,-0.40794 1.760316,-0.85293 2.653586,-1.30277 v -0.0858 c -0.314791,-0.37297 -0.637821,-0.73905 -0.954982,-1.11001 -0.269549,-0.31527 -0.537665,-0.63157 -0.806151,-0.94774 z m -0.892453,3.4463 c -0.0355,0.0172 -0.07039,0.0342 -0.106452,0.0517 l 0.01344,0.22325 c 0.03149,-0.0927 0.0731,-0.20508 0.09302,-0.27492 z M 28.850952,103.342 c -0.02053,0.002 -0.05068,0.006 -0.0708,0.009 -0.0883,0.0171 -0.18978,0.0367 -0.289388,0.0558 -0.01077,0.0299 -0.01955,0.0632 -0.02739,0.0842 0.0031,0.0373 0.0033,0.0752 0.0057,0.11265 0.0037,0.003 0.0071,0.007 0.01085,0.0103 0.182435,0.16681 0.620733,0.67008 0.972552,0.78186 0.02588,0.008 0.05383,0.006 0.08113,0.007 z m -1.349788,0.25477 c -0.601662,0.11529 -1.258628,0.24446 -1.90221,0.37 l 2.63033,4.09381 c 0.28883,-0.001 0.5767,0.0111 0.842325,0.12196 0.168476,0.0703 0.271923,0.21103 0.37414,0.35036 0.130537,0.0454 0.241175,0.14576 0.355015,0.22376 0.0062,0.002 0.04324,0.0138 0.07751,0.0243 0.0209,-0.007 0.0422,-0.0134 0.06305,-0.0202 0.03162,-0.0103 0.06615,-0.007 0.09922,-0.0104 0.01161,-0.002 0.232957,-0.0488 0.251147,-0.0558 0.32806,-0.12489 0.641546,-0.29441 0.962732,-0.43615 0.07317,-0.0466 0.147145,-0.0923 0.219625,-0.14004 0.219554,-0.14445 0.195165,-0.12549 0.401526,-0.33951 0.05096,-0.0529 0.102111,-0.10603 0.146762,-0.16434 0.01003,-0.0131 0.0163,-0.0287 0.02479,-0.0429 -0.367049,0.005 -1.120402,0.0174 -1.130681,0.0176 -0.30928,-0.0133 -0.379789,-0.0334 -0.746207,0.0765 -0.18152,0.0544 -0.337386,0.25698 -0.523484,0.22118 -0.0033,-5.3e-4 -0.0065,-0.002 -0.0098,-0.003 -0.200625,0.20565 -0.348414,0.30281 -0.387056,0.1788 -0.03752,-0.12041 -0.04197,-0.25395 -0.02119,-0.38447 -0.08062,-0.0681 -0.150926,-0.14715 -0.204637,-0.23306 -0.05313,-0.085 0.188431,-0.0682 0.282668,-0.10232 0.01757,-0.008 0.03515,-0.0162 0.05271,-0.0243 0.0065,-0.0108 0.01225,-0.0221 0.01913,-0.0326 0.106963,-0.16161 0.349803,-0.17096 0.535369,-0.22686 0.007,-0.002 0.01027,-0.003 0.01704,-0.005 0.214929,-0.0992 0.429993,-0.1984 0.644922,-0.29766 0.09387,-0.11759 0.177953,-0.21682 0.264583,-0.32091 l -0.919324,-1.42988 c -0.151706,0.0484 -0.311523,0.0699 -0.463536,0.0465 -0.152742,-0.0235 -0.298932,-0.0824 -0.440802,-0.14366 -0.14823,-0.064 -0.346979,-0.22501 -0.528648,-0.38653 l -0.0011,0.16484 c -5.29e-4,0.0656 -5.29e-4,0.13131 -0.0011,0.19689 0.05799,0.034 0.072,0.0899 0.121957,0.23771 0.208563,0.61702 -0.414655,0.82785 -0.623218,0.21084 -0.05434,-0.16076 -0.09581,-0.21661 -0.02222,-0.20671 -0.04039,-0.0204 -0.08426,-0.0413 -0.135909,-0.0641 -0.0026,-0.002 -1.6e-5,-0.006 0,-0.009 2.07e-4,-0.0424 7.94e-4,-0.0847 0.0011,-0.12712 0.0024,-0.39919 2.2e-5,-0.0899 0.0026,-0.53743 1.14e-4,-0.16439 -0.0079,-0.32953 -0.01241,-0.49455 -0.105746,-0.0988 -0.212651,-0.19651 -0.316775,-0.29714 z m 3.074747,3.16053 c -0.04915,0.0616 -0.0973,0.121 -0.147278,0.18397 0.140441,-0.0149 0.269002,-0.009 0.497645,-0.01 0.0021,-3e-5 0.156657,-0.003 0.230475,-0.004 l -0.219625,-0.34107 c -0.04538,0.022 -0.09472,0.0461 -0.137975,0.0672 -0.07444,0.0344 -0.148804,0.069 -0.223242,0.10335 z m 3.47059,-0.96377 c -0.764516,0.38268 -1.536507,0.76229 -2.287199,1.12603 0.598078,-0.009 1.464387,-0.0224 2.287199,-0.0351 z m -17.101282,0.71262 c -0.371104,0.19813 -0.855301,0.45458 -0.903304,0.48318 -0.287753,0.17141 -0.510282,0.4459 -0.81132,0.59273 -0.162116,0.0791 -0.332051,0.13815 -0.504362,0.19223 0.288125,0.30123 0.80166,0.86913 0.879533,1.08314 0.129346,0.35547 0.188631,0.74865 0.148828,1.12499 0.375904,0.058 0.755097,0.0956 1.133264,0.13695 0.03477,0.004 0.02425,0.003 0.05736,0.006 z m 17.101282,1.03508 c -0.642062,0.01 -0.756132,0.0123 -1.334802,0.0207 -0.0011,0.022 -0.0038,0.0446 -0.0098,0.13333 -0.01916,0.0526 -0.03166,0.10873 -0.05788,0.15813 -0.08089,0.15256 -0.193272,0.28095 -0.314711,0.40204 -0.269184,0.2684 -0.478194,0.42343 -0.809252,0.60462 -0.35982,0.15865 -0.711012,0.34152 -1.081071,0.47594 -0.04571,0.0166 -0.318201,0.0652 -0.336931,0.0692 -0.0172,10e-4 -0.06058,0.0189 -0.05168,0.004 0.02172,-0.0358 0.138152,-0.0876 0.09715,-0.0796 -0.08973,0.0186 -0.162028,0.0903 -0.251148,0.11162 -0.135519,0.0323 -0.355414,-0.0959 -0.467153,-0.14211 -0.177729,-0.12187 -0.353695,-0.23548 -0.516766,-0.38137 -0.0099,-0.0141 -0.01955,-0.0287 -0.02997,-0.0424 -0.01849,-0.0243 -0.06664,-0.0424 -0.05684,-0.0713 0.0019,-0.006 0.0085,-0.008 0.01704,-0.007 -0.05614,-0.0201 -0.113098,-0.0387 -0.171566,-0.0486 l 1.657781,2.58072 h 3.717602 z m -20.040121,0.47904 v 1.93218 c 0.0015,0.001 0.0026,0.003 0.0041,0.004 0.02556,0.0203 0.06042,0.026 0.08733,0.0444 0.02617,0.018 0.05026,0.0389 0.07493,0.0589 0.04012,0.006 0.180072,0.0401 0.113689,0.0145 0.0442,-0.003 0.08851,-0.004 0.132808,-0.004 0.07117,-1.6e-4 0.132004,0.01 0.187585,0.0238 -0.08276,-0.33266 0.336444,-0.45185 0.574126,-0.57982 0.111911,-0.0435 0.385396,-0.0213 0.335896,-0.13074 -0.07732,-0.1708 -0.364232,-0.12321 -0.506429,-0.24546 -0.183802,-0.15802 -0.289558,-0.38932 -0.447001,-0.57361 -0.146099,-0.17103 -0.302042,-0.33381 -0.462504,-0.49144 -0.02058,-0.0202 -0.0591,-0.0361 -0.09457,-0.0527 z m 15.902905,0.76275 c -0.0019,-2.1e-4 -0.0033,1e-4 -0.0047,5.2e-4 -0.0024,5.3e-4 -0.0057,0.002 -0.0083,0.003 0.01826,0.005 0.03419,0.0102 0.03979,0.0108 0.01003,10e-4 -0.01339,-0.0125 -0.02687,-0.0139 z m -15.019238,1.69653 c -0.01659,0.0495 -0.045,0.097 -0.0925,0.13643 0.06216,0.0729 0.125691,0.14479 0.186035,0.21911 0.0096,0.0118 0.01208,0.029 0.02325,0.0393 0.172387,0.15913 0.208718,0.16101 0.431499,0.28939 0.181572,0.0983 0.234696,0.12736 0.304891,0.16536 h 1.201993 v -0.5426 c -0.06525,-0.007 -0.04733,-0.005 -0.119372,-0.0124 -0.464878,-0.0503 -0.931825,-0.0924 -1.391647,-0.17725 -0.177727,-0.0328 -0.388736,-0.0343 -0.544152,-0.11731 z m -0.31626,0.23565 c -0.03255,0.006 -0.06759,0.01 -0.104903,0.0119 -0.01387,0.01 -0.03014,0.0161 -0.05168,0.0145 -0.01812,-0.001 -0.03476,-0.007 -0.05168,-0.0119 -0.0036,1e-4 -0.0072,-1.2e-4 -0.01085,0 0.0251,0.0188 0.044,0.0334 0.06408,0.0491 0.05905,-0.016 0.11154,-0.0379 0.155029,-0.0636 z m -0.49351,0.0537 c -0.0082,0.004 -0.0165,0.008 -0.0248,0.0124 0.0088,-0.002 0.01802,-0.004 0.02687,-0.007 -6.08e-4,-0.002 -0.0015,-0.003 -0.0021,-0.005 z m -0.0739,0.5209 v 0.0393 h 0.05116 c -0.01451,-0.0117 -0.03162,-0.0246 -0.05116,-0.0393 z"
         transform="matrix(2.1642856,0,0,2.1642856,-15.734296,-130.46094)" />
    </g>
  </g>
</svg>
